<svg width="44" height="45" viewBox="0 0 44 45" fill="none" xmlns="http://www.w3.org/2000/svg">
<circle cx="21.7721" cy="22.5" r="21.7459" fill="#2B9350"/>
<path d="M15.2434 13.7221C15.1199 24.5339 18.6108 28.2856 22.0275 28.3917C23.5123 28.4378 24.9891 27.8054 26.1413 26.7756C27.2858 25.7527 28.0996 24.3465 28.2682 22.8362C28.6581 19.343 25.5805 15.2347 15.2434 13.7221ZM21.9922 29.783C17.8679 29.6549 13.642 25.3604 13.972 12.912L13.9923 12.1469L14.6903 12.2382C26.5556 13.7899 30.0227 18.7534 29.5486 22.9999C29.3385 24.8815 28.3497 26.6111 26.963 27.8504C25.5841 29.0828 23.8009 29.8391 21.9922 29.783Z" fill="#FFFFFE"/>
<path d="M20.9225 20.7031C20.6496 20.6442 20.3843 20.836 20.33 21.1313C20.2756 21.4266 20.4528 21.7137 20.7256 21.7726C22.7758 22.2163 24.456 24.1005 25.7173 26.5146C27.3734 29.6839 27.1879 29.1868 27.5495 32.1129C27.5593 32.413 27.792 32.8635 28.0692 32.8529C28.3464 32.8423 28.5632 32.3746 28.5535 32.0746C28.0692 28.6436 28.3274 29.3003 26.5914 25.9777C25.197 23.3091 23.298 21.2173 20.9225 20.7031Z" fill="#FFFFFE"/>
</svg>
