<svg width="29" height="43" viewBox="0 0 29 43" fill="none" xmlns="http://www.w3.org/2000/svg">
<path d="M14.8546 33.2336C8.20981 33.0273 1.40152 26.1083 1.93309 6.05256L1.96579 4.81995L3.09044 4.967C22.2067 7.46694 27.7925 15.4638 27.0287 22.3054C26.6903 25.3367 25.0972 28.1234 22.8631 30.12C20.6415 32.1055 17.7685 33.3241 14.8546 33.2336Z" fill="#447C5A"/>
<path d="M13.1311 18.6049C12.6915 18.5101 12.2641 18.819 12.1765 19.2948C12.089 19.7705 12.3744 20.2332 12.814 20.3279C16.1171 21.0429 18.824 24.0786 20.8562 27.9679C23.5242 33.074 23.2255 32.2731 23.808 36.9874C23.8238 37.4708 24.1987 38.1967 24.6453 38.1796C25.092 38.1626 25.4413 37.409 25.4255 36.9256C24.6453 31.398 25.0613 32.4559 22.2643 27.1029C20.0178 22.8035 16.9584 19.4333 13.1311 18.6049Z" fill="#77A88A"/>
</svg>
