<svg width="101" height="28" viewBox="0 0 101 28" fill="none" xmlns="http://www.w3.org/2000/svg">
<path d="M2.28 9.84596V13.926H7.08V15.786H2.28V20.046H7.68V21.906H0V7.98596H7.68V9.84596H2.28Z" fill="black"/>
<path d="M9.72828 16.386C9.72828 15.2526 9.95495 14.2593 10.4083 13.406C10.8749 12.5393 11.5149 11.8726 12.3283 11.406C13.1416 10.9393 14.0749 10.706 15.1283 10.706C16.4616 10.706 17.5616 11.026 18.4283 11.666C19.3083 12.2926 19.9016 13.1926 20.2083 14.366H17.7483C17.5483 13.8193 17.2283 13.3926 16.7883 13.086C16.3483 12.7793 15.7949 12.626 15.1283 12.626C14.1949 12.626 13.4483 12.9593 12.8883 13.626C12.3416 14.2793 12.0683 15.1993 12.0683 16.386C12.0683 17.5726 12.3416 18.4993 12.8883 19.166C13.4483 19.8326 14.1949 20.166 15.1283 20.166C16.4483 20.166 17.3216 19.586 17.7483 18.426H20.2083C19.8883 19.546 19.2883 20.4393 18.4083 21.106C17.5283 21.7593 16.4349 22.086 15.1283 22.086C14.0749 22.086 13.1416 21.8526 12.3283 21.386C11.5149 20.906 10.8749 20.2393 10.4083 19.386C9.95495 18.5193 9.72828 17.5193 9.72828 16.386Z" fill="black"/>
<path d="M27.2605 22.086C26.2205 22.086 25.2805 21.8526 24.4405 21.386C23.6005 20.906 22.9405 20.2393 22.4605 19.386C21.9805 18.5193 21.7405 17.5193 21.7405 16.386C21.7405 15.266 21.9871 14.2726 22.4805 13.406C22.9738 12.5393 23.6471 11.8726 24.5005 11.406C25.3538 10.9393 26.3071 10.706 27.3605 10.706C28.4138 10.706 29.3671 10.9393 30.2205 11.406C31.0738 11.8726 31.7471 12.5393 32.2405 13.406C32.7338 14.2726 32.9805 15.266 32.9805 16.386C32.9805 17.506 32.7271 18.4993 32.2205 19.366C31.7138 20.2326 31.0205 20.906 30.1405 21.386C29.2738 21.8526 28.3138 22.086 27.2605 22.086ZM27.2605 20.106C27.8471 20.106 28.3938 19.966 28.9005 19.686C29.4205 19.406 29.8405 18.986 30.1605 18.426C30.4805 17.866 30.6405 17.186 30.6405 16.386C30.6405 15.586 30.4871 14.9126 30.1805 14.366C29.8738 13.806 29.4671 13.386 28.9605 13.106C28.4538 12.826 27.9071 12.686 27.3205 12.686C26.7338 12.686 26.1871 12.826 25.6805 13.106C25.1871 13.386 24.7938 13.806 24.5005 14.366C24.2071 14.9126 24.0605 15.586 24.0605 16.386C24.0605 17.5726 24.3605 18.4926 24.9605 19.146C25.5738 19.786 26.3405 20.106 27.2605 20.106Z" fill="black"/>
<path d="M49.8744 8.00596V21.906H47.5944V12.386L43.3544 21.906H41.7744L37.5144 12.386V21.906H35.2344V8.00596H37.6944L42.5744 18.906L47.4344 8.00596H49.8744Z" fill="black"/>
<path d="M55.1511 10.886V21.906H52.8711V10.886H55.1511Z" fill="black"/>
<path d="M63.7045 10.706C64.5712 10.706 65.3445 10.886 66.0245 11.246C66.7179 11.606 67.2579 12.1393 67.6445 12.846C68.0312 13.5526 68.2245 14.406 68.2245 15.406V21.906H65.9645V15.746C65.9645 14.7593 65.7179 14.006 65.2245 13.486C64.7312 12.9526 64.0579 12.686 63.2045 12.686C62.3512 12.686 61.6712 12.9526 61.1645 13.486C60.6712 14.006 60.4245 14.7593 60.4245 15.746V21.906H58.1445V10.886H60.4245V12.146C60.7979 11.6926 61.2712 11.3393 61.8445 11.086C62.4312 10.8326 63.0512 10.706 63.7045 10.706Z" fill="black"/>
<path d="M75.5728 10.706C76.4261 10.706 77.1795 10.8793 77.8328 11.226C78.4995 11.5593 79.0195 11.9793 79.3928 12.486V10.886H81.6928V22.086C81.6928 23.0993 81.4795 23.9993 81.0528 24.786C80.6261 25.586 80.0061 26.2126 79.1928 26.666C78.3928 27.1193 77.4328 27.346 76.3128 27.346C74.8195 27.346 73.5795 26.9926 72.5928 26.286C71.6061 25.5926 71.0461 24.646 70.9128 23.446H73.1728C73.3461 24.0193 73.7128 24.4793 74.2728 24.826C74.8461 25.186 75.5261 25.366 76.3128 25.366C77.2328 25.366 77.9728 25.086 78.5328 24.526C79.1061 23.966 79.3928 23.1526 79.3928 22.086V20.246C79.0061 20.766 78.4795 21.206 77.8128 21.566C77.1595 21.9126 76.4128 22.086 75.5728 22.086C74.6128 22.086 73.7328 21.846 72.9328 21.366C72.1461 20.8726 71.5195 20.1926 71.0528 19.326C70.5995 18.446 70.3728 17.4526 70.3728 16.346C70.3728 15.2393 70.5995 14.2593 71.0528 13.406C71.5195 12.5526 72.1461 11.8926 72.9328 11.426C73.7328 10.946 74.6128 10.706 75.5728 10.706ZM79.3928 16.386C79.3928 15.626 79.2328 14.966 78.9128 14.406C78.6061 13.846 78.1995 13.4193 77.6928 13.126C77.1861 12.8326 76.6395 12.686 76.0528 12.686C75.4661 12.686 74.9195 12.8326 74.4128 13.126C73.9061 13.406 73.4928 13.826 73.1728 14.386C72.8661 14.9326 72.7128 15.586 72.7128 16.346C72.7128 17.106 72.8661 17.7726 73.1728 18.346C73.4928 18.9193 73.9061 19.3593 74.4128 19.666C74.9328 19.9593 75.4795 20.106 76.0528 20.106C76.6395 20.106 77.1861 19.9593 77.6928 19.666C78.1995 19.3726 78.6061 18.946 78.9128 18.386C79.2328 17.8126 79.3928 17.146 79.3928 16.386Z" fill="black"/>
<path d="M86.9675 7.10596V21.906H84.6875V7.10596H86.9675Z" fill="black"/>
<path d="M100.061 16.126C100.061 16.5393 100.034 16.9126 99.9809 17.246H91.5609C91.6276 18.126 91.9543 18.8326 92.5409 19.366C93.1276 19.8993 93.8476 20.166 94.7009 20.166C95.9276 20.166 96.7943 19.6526 97.3009 18.626H99.7609C99.4276 19.6393 98.8209 20.4726 97.9409 21.126C97.0743 21.766 95.9943 22.086 94.7009 22.086C93.6476 22.086 92.7009 21.8526 91.8609 21.386C91.0343 20.906 90.3809 20.2393 89.9009 19.386C89.4343 18.5193 89.2009 17.5193 89.2009 16.386C89.2009 15.2526 89.4276 14.2593 89.8809 13.406C90.3476 12.5393 90.9943 11.8726 91.8209 11.406C92.6609 10.9393 93.6209 10.706 94.7009 10.706C95.7409 10.706 96.6676 10.9326 97.4809 11.386C98.2943 11.8393 98.9276 12.4793 99.3809 13.306C99.8343 14.1193 100.061 15.0593 100.061 16.126ZM97.6809 15.406C97.6676 14.566 97.3676 13.8926 96.7809 13.386C96.1943 12.8793 95.4676 12.626 94.6009 12.626C93.8143 12.626 93.1409 12.8793 92.5809 13.386C92.0209 13.8793 91.6876 14.5526 91.5809 15.406H97.6809Z" fill="black"/>
<path d="M52.7314 2.49744C53.3149 3.06797 53.6089 3.95994 53.7753 4.8939C52.5532 4.95758 51.6627 4.82723 50.9518 4.29869C50.2915 3.83821 49.7514 2.97085 49.5357 1.54457C51.2415 1.49105 52.1479 1.92692 52.7314 2.49744Z" fill="#447C5A"/>
<path d="M56.0363 2.79926C55.4801 3.4404 55.1312 4.23501 55.0356 5.07837C56.1723 5.1841 57.0469 5.00892 57.7101 4.62088C58.3907 4.1141 58.8598 3.39446 59.1191 2.0377C57.5074 1.86245 56.6575 2.28379 56.0363 2.79926Z" fill="#447C5A"/>
</svg>
